# xmcd
#
# Track frame offsets:
# 150
# 10482
# 23837
# 37145
# 56202
# 62240
# 73470
# 81937
# 94192
# 106370
# 120577
# 131295
# 144877
# 154172
# 162667
# 175217
#
# Disc length: 2492 seconds
#
#
# Revision: 0
# Processed by: cddbd v1.5.2PL0 Copyright (c) Steve Scherf et al.
# Submitted via: FreeRIP 2.92 
#
DISCID=e709ba10
DTITLE=Tommorow I'll Be Gone - Big Country Bluegrass
DYEAR=1900
DGENRE=Bluegrass
TTITLE0=Tommorow I'll Be Gone
TTITLE1=I've Waited To Late
TTITLE2=Muleskinner Blues
TTITLE3=Days Gone By
TTITLE4=Martha White Theme
TTITLE5=Let Me Be Your Friend
TTITLE6=Cumberland Gap
TTITLE7=Gonna Walk the Streets of Gold
TTITLE8=You're Still the Rose of my Heart
TTITLE9=I Live in the Past
TTITLE10=You Live in a World All Your Own
TTITLE11=A Walts for Carolyn
TTITLE12=In Despair
TTITLE13=Where's Your Still Uncle Bill
TTITLE14=Have You Come to Say Goodbye
TTITLE15=Call on His Name
EXTD=
EXTT0=
EXTT1=
EXTT2=
EXTT3=
EXTT4=
EXTT5=
EXTT6=
EXTT7=
EXTT8=
EXTT9=
EXTT10=
EXTT11=
EXTT12=
EXTT13=
EXTT14=
EXTT15=
PLAYORDER=
